<svg width="32" height="33" viewBox="0 0 32 33" fill="none"
    xmlns="http://www.w3.org/2000/svg">
    <style type="text/css">
	.st0{fill:current;}
    </style>
    <path d="M7.68 3.18765C9.088 3.18765 10.24 4.33965 10.24 5.74765C10.24 7.15565 9.088 8.30765 7.68 8.30765C6.272 8.30765 5.12 7.15565 5.12 5.74765C5.12 4.33965 6.272 3.18765 7.68 3.18765ZM7.68 0.627655C4.864 0.627655 2.56 2.93165 2.56 5.74765C2.56 8.56365 4.864 10.8677 7.68 10.8677C10.496 10.8677 12.8 8.56365 12.8 5.74765C12.8 2.93165 10.496 0.627655 7.68 0.627655ZM23.04 7.66765C24.448 7.66765 25.6 8.81965 25.6 10.2277C25.6 11.6357 24.448 12.7877 23.04 12.7877C21.632 12.7877 20.48 11.6357 20.48 10.2277C20.48 8.81965 21.632 7.66765 23.04 7.66765ZM23.04 3.82765C19.52 3.82765 16.64 6.70765 16.64 10.2277C16.64 13.7477 19.52 16.6277 23.04 16.6277C26.56 16.6277 29.44 13.7477 29.44 10.2277C29.44 6.70765 26.56 3.82765 23.04 3.82765ZM23.04 19.1877C15.616 19.1877 9.6 25.2037 9.6 32.6277H13.44C13.44 27.3477 17.76 23.0277 23.04 23.0277C27.136 23.0277 30.624 25.5877 32 29.2037V22.6117C29.632 20.4677 26.496 19.1877 23.04 19.1877ZM7.68 13.4277C4.768 13.4277 2.08 14.4517 0 16.1477V19.8277C1.76 17.4917 4.544 15.9877 7.68 15.9877C10.432 15.9877 12.896 17.1397 14.656 18.9957C15.392 18.5477 16.192 18.1317 17.024 17.7797C14.784 15.1237 11.424 13.4277 7.68 13.4277Z" fill="st0"/>
</svg>
