<svg width="16" height="17" viewBox="0 0 16 17" fill="none" xmlns="http://www.w3.org/2000/svg">
<style type="text/css">
	.st0{fill:current;}
</style>
<path d="M8 0.476593C3.584 0.476593 0 4.06059 0 8.47659C0 12.8926 3.584 16.4766 8 16.4766C12.416 16.4766 16 12.8926 16 8.47659C16 4.06059 12.416 0.476593 8 0.476593ZM8.784 13.2766H8.8V14.5086C8.544 14.5406 8.272 14.5566 8 14.5566C7.728 14.5566 7.456 14.5406 7.2 14.5086V13.2766H7.216C6.064 13.0366 5.136 12.3006 4.8 11.3406L6.352 10.9246C6.608 11.4046 7.264 11.7566 8 11.7566C8.96 11.7566 9.76 11.1646 9.76 10.4766C9.76 10.3166 9.712 10.1726 9.648 10.0286C9.392 9.54859 8.736 9.19659 8 9.19659C7.104 9.19659 6.288 8.89259 5.68 8.39659C5.28 8.06059 4.96 7.64459 4.8 7.18059C4.704 6.90859 4.64 6.62059 4.64 6.31659C4.64 4.97259 5.728 3.82059 7.2 3.51659V2.44459C7.456 2.41259 7.728 2.39659 8 2.39659C8.272 2.39659 8.544 2.41259 8.8 2.44459V3.51659C9.936 3.75659 10.864 4.49259 11.2 5.45259L9.648 5.86859C9.392 5.38859 8.736 5.03659 8 5.03659C7.04 5.03659 6.24 5.62859 6.24 6.31659C6.24 6.47659 6.288 6.62059 6.352 6.76459C6.608 7.24459 7.264 7.59659 8 7.59659C8.896 7.59659 9.712 7.90059 10.32 8.39659C10.72 8.73259 11.04 9.14859 11.2 9.61259C11.296 9.88459 11.36 10.1726 11.36 10.4766C11.36 11.8366 10.256 12.9726 8.784 13.2766Z" fill="st0"/>
</svg>
