<svg width="140" height="34" viewBox="0 0 140 34" fill="none" xmlns="http://www.w3.org/2000/svg">
<path d="M24.29 18.6756V23.7727H20.818V18.6756C20.818 15.8667 18.494 13.5785 15.61 13.5785C16.702 15.0035 17.346 16.7574 17.346 18.6756V23.7727H13.874V18.6756C13.874 17.1684 13.202 15.8119 12.138 14.8802C11.214 14.0718 9.996 13.5785 8.666 13.5785C5.796 13.5785 3.458 15.853 3.458 18.6756V23.7727H0V18.6756C0 13.9896 3.878 10.1805 8.68 10.1805C9.912 10.1805 11.088 10.4271 12.152 10.893C13.216 10.4408 14.392 10.1805 15.624 10.1805C20.398 10.1942 24.29 13.9896 24.29 18.6756ZM52.038 11.8795V23.7727H55.51V11.8795C54.362 12.1124 53.186 12.1124 52.038 11.8795ZM52.038 6.79611V10.1531C53.172 10.4408 54.376 10.4408 55.51 10.1531V6.79611H52.038ZM79.8 10.1942C75.964 10.1942 72.856 13.236 72.856 16.9903V23.7864H76.328V16.9766C76.328 15.0994 77.882 13.5785 79.8 13.5785C81.718 13.5785 83.272 15.0994 83.272 16.9766V23.7727H86.744V16.9766C86.744 13.236 83.636 10.1942 79.8 10.1942ZM71.302 17.1547C71.302 21.0049 68.124 24.1152 64.19 24.1152C60.256 24.1152 57.078 21.0049 57.078 17.1547C57.078 13.3045 60.256 10.1942 64.19 10.1942C68.11 10.1942 71.302 13.3045 71.302 17.1547ZM67.83 17.1547C67.83 15.1816 66.206 13.5922 64.19 13.5922C62.174 13.5922 60.55 15.1953 60.55 17.1547C60.55 19.1278 62.174 20.7172 64.19 20.7172C66.206 20.7172 67.83 19.1141 67.83 17.1547ZM45.108 6.79611H41.636C41.636 11.4821 45.514 15.2776 50.302 15.2776V11.8932C47.432 11.8932 45.108 9.60499 45.108 6.79611ZM8.68 14.428C8.47 14.428 8.274 14.4417 8.078 14.4691C7.35 15.7023 6.944 17.141 6.944 18.6756V23.7727H10.416V18.6756C10.416 17.4698 10.836 16.3737 11.55 15.4968C10.78 14.8391 9.772 14.428 8.68 14.428ZM46.34 19.9225C45.528 19.2511 45.094 18.292 45.094 17.3191V14.6199C44.394 14.1677 43.75 13.6333 43.19 13.0167C42.56 12.318 42.028 11.5369 41.622 10.6874V17.3191C41.622 19.2511 42.462 21.183 44.1 22.5258C44.408 22.7862 44.744 23.0054 45.094 23.2109C46.704 24.1152 48.58 24.3345 50.302 23.9097V20.265C49.084 20.9501 47.488 20.8679 46.34 19.9225ZM29.764 20.2787C28.252 18.7989 26.964 17.278 25.97 15.8256C25.536 18.0179 26.18 20.3746 27.916 22.0737C29.652 23.7727 32.06 24.4167 34.3 23.9782C32.844 23.0054 31.29 21.7585 29.764 20.2787ZM39.662 19.484C40.558 17.0314 39.998 14.1814 37.996 12.222C35.994 10.2627 33.082 9.7146 30.576 10.5915C30.114 10.7559 29.68 10.9615 29.26 11.2081C29.484 11.8932 30.142 12.9208 31.094 14.0855C32.494 13.2634 34.342 13.4415 35.546 14.6199C36.75 15.7982 36.932 17.6069 36.092 18.9771C37.282 19.9088 38.332 20.5528 39.032 20.772C39.284 20.3746 39.494 19.9362 39.662 19.484Z" fill="white"/>
<path d="M41.5521 25.554C40.1241 26.9516 35.1261 24.3071 30.3941 19.6759C25.6621 15.0446 22.9601 10.1394 24.3881 8.7555C25.2281 7.93339 27.3281 8.52257 29.8761 10.0983C29.2041 9.85165 28.7001 9.82424 28.4341 10.0846C27.6221 10.8793 29.5961 14.0992 32.8441 17.2917C36.0921 20.4843 39.3961 22.4025 40.2081 21.6078C40.4601 21.3612 40.4461 20.8542 40.1941 20.1965C41.7901 22.6766 42.392 24.7319 41.5521 25.554ZM64.1901 15.4557C63.2381 15.4557 62.4541 16.2093 62.4541 17.1547C62.4541 18.0865 63.2241 18.8538 64.1901 18.8538C65.1561 18.8538 65.9261 18.1002 65.9261 17.1547C65.9261 16.2093 65.1421 15.4557 64.1901 15.4557Z" fill="url(#paint0_linear)"/>
<path d="M103.796 22.2929C102.774 21.7722 101.976 21.046 101.402 20.1143C100.828 19.1826 100.534 18.1275 100.534 16.9355C100.534 15.7571 100.828 14.6884 101.402 13.7567C101.976 12.8249 102.774 12.0987 103.796 11.5781C104.818 11.0574 105.952 10.7971 107.226 10.7971C108.388 10.7971 109.424 11.0026 110.348 11.3999C111.258 11.7973 112.014 12.3865 112.616 13.1401L110.068 15.3735C109.326 14.4555 108.458 14.0033 107.45 14.0033C106.61 14.0033 105.924 14.2636 105.406 14.798C104.888 15.3324 104.636 16.0449 104.636 16.9355C104.636 17.8261 104.888 18.5386 105.406 19.073C105.924 19.6073 106.596 19.8677 107.45 19.8677C108.458 19.8677 109.326 19.4155 110.068 18.4975L112.616 20.7309C112.028 21.4982 111.272 22.0737 110.348 22.471C109.438 22.8684 108.388 23.0739 107.226 23.0739C105.952 23.0739 104.804 22.8136 103.796 22.2929Z" fill="white"/>
<path d="M124.39 22.8136L124.362 17.4698L121.758 21.7585H119.98L117.376 17.648V22.8136H113.68V11.0711H116.998L120.904 17.3328L124.712 11.0711H128.03L128.058 22.8136H124.39Z" fill="white"/>
<path d="M131.516 22.7451C130.578 22.5258 129.794 22.2381 129.192 21.8681L130.494 18.9771C131.068 19.3059 131.698 19.5662 132.412 19.7581C133.126 19.9499 133.798 20.0458 134.456 20.0458C135.016 20.0458 135.422 19.991 135.66 19.8814C135.898 19.7718 136.024 19.621 136.024 19.4018C136.024 19.1552 135.87 18.9771 135.548 18.8537C135.24 18.7304 134.722 18.5934 133.994 18.4564C133.07 18.2646 132.3 18.059 131.684 17.8398C131.068 17.6206 130.536 17.2643 130.074 16.7711C129.612 16.2778 129.388 15.6064 129.388 14.7569C129.388 14.017 129.598 13.3456 130.018 12.7427C130.438 12.1398 131.068 11.6603 131.908 11.3177C132.748 10.9752 133.77 10.7971 134.96 10.7971C135.786 10.7971 136.584 10.8793 137.382 11.0574C138.18 11.2355 138.88 11.4822 139.482 11.8247L138.264 14.6884C137.088 14.1129 135.968 13.8115 134.918 13.8115C133.882 13.8115 133.364 14.0581 133.364 14.5514C133.364 14.7843 133.518 14.9624 133.826 15.0857C134.134 15.2091 134.638 15.3324 135.352 15.4694C136.262 15.6338 137.032 15.8256 137.662 16.0449C138.292 16.2641 138.838 16.6203 139.3 17.1136C139.762 17.6069 140 18.2783 140 19.1278C140 19.8677 139.79 20.5391 139.37 21.1282C138.95 21.7311 138.32 22.197 137.48 22.5532C136.64 22.9095 135.618 23.0876 134.428 23.0876C133.42 23.0739 132.454 22.9643 131.516 22.7451Z" fill="white"/>
<path d="M93.674 33.9532C93.478 33.9532 93.324 33.8025 93.324 33.6106V0.342546C93.324 0.15072 93.478 0 93.674 0C93.87 0 94.024 0.15072 94.024 0.342546V33.6243C94.024 33.8025 93.87 33.9532 93.674 33.9532Z" fill="white"/>
<defs>
<linearGradient id="paint0_linear" x1="56.9312" y1="26.6515" x2="32.0526" y2="1.23155" gradientUnits="userSpaceOnUse">
<stop offset="0.3" stop-color="#C6007E"/>
<stop offset="1" stop-color="#C6007E"/>
</linearGradient>
</defs>
</svg>
