<svg width="16" height="10" viewBox="0 0 16 10" fill="none"
    xmlns="http://www.w3.org/2000/svg">
    <style type="text/css">
	.st0{fill:current;}
    </style>
    <path d="M10.24 5.83353H3.84V5.19353H10.24V5.83353ZM10.24 6.47353H3.84V7.11353H10.24V6.47353ZM12.16 6.96953H11.52V7.56153H12.16V6.96953ZM12.16 5.76953H11.52V6.36153H12.16V5.76953ZM12.16 4.56953H11.52V5.16153H12.16V4.56953ZM12.16 3.38553H11.52V3.97753H12.16V3.38553ZM12.16 2.18553H11.52V2.77753H12.16V2.18553ZM16 1.94553V3.91353C15.472 3.91353 15.04 4.34553 15.04 4.87353C15.04 5.40153 15.472 5.83353 16 5.83353V7.70553C16 8.76153 15.136 9.62553 14.08 9.62553H1.92C0.864 9.62553 0 8.76153 0 7.70553V5.83353C0.528 5.83353 0.96 5.40153 0.96 4.87353C0.96 4.34553 0.528 3.91353 0 3.91353V1.94553C0 0.889528 0.864 0.025528 1.92 0.025528H14.08C15.136 0.025528 16 0.889528 16 1.94553ZM13.76 4.87353C13.76 4.10553 14.144 3.43353 14.72 3.03353V1.94553C14.72 1.59353 14.432 1.30553 14.08 1.30553H1.92C1.568 1.30553 1.28 1.59353 1.28 1.94553V3.03353C1.856 3.43353 2.24 4.10553 2.24 4.87353C2.24 5.64153 1.856 6.31353 1.28 6.71353V7.70553C1.28 8.05753 1.568 8.34553 1.92 8.34553H14.08C14.432 8.34553 14.72 8.05753 14.72 7.70553V6.71353C14.144 6.31353 13.76 5.64153 13.76 4.87353ZM7.04 2.63353H3.84V3.91353H7.04V2.63353Z" fill="st0"/>
</svg>
