<svg width="16" height="17" viewBox="0 0 16 17" fill="none" xmlns="http://www.w3.org/2000/svg">
<style type="text/css">
	.st0{fill:current;}
</style>
<path d="M16 0.802124V5.92212H14.08V2.72212H1.92V5.92212H0V0.802124H16ZM0.96 14.2421V16.8021H3.52V14.2421H0.96ZM12.48 14.2421V16.8021H15.04V14.2421H12.48ZM16 7.20212V12.9621H0V7.20212H16ZM4.48 10.0821C4.48 9.20212 3.76 8.48212 2.88 8.48212C2 8.48212 1.28 9.20212 1.28 10.0821C1.28 10.9621 2 11.6821 2.88 11.6821C3.76 11.6821 4.48 10.9621 4.48 10.0821ZM14.72 10.0821C14.72 9.20212 14 8.48212 13.12 8.48212C12.24 8.48212 11.52 9.20212 11.52 10.0821C11.52 10.9621 12.24 11.6821 13.12 11.6821C14 11.6821 14.72 10.9621 14.72 10.0821Z" fill="st0"/>
</svg>
