<svg width="16" height="17" viewBox="0 0 16 17" fill="none"
    xmlns="http://www.w3.org/2000/svg">
    <style type="text/css">
	.st0{fill:current;}
    </style>
    <path d="M7.936 2.07106C8.992 2.07106 9.856 2.93506 9.856 3.99106C9.856 5.04706 8.992 5.91106 7.936 5.91106C6.88 5.91106 6.016 5.04706 6.016 3.99106C6.016 2.93506 6.88 2.07106 7.936 2.07106ZM7.936 0.151062C5.808 0.151062 4.096 1.86306 4.096 3.99106C4.096 6.11906 5.808 7.83106 7.936 7.83106C10.064 7.83106 11.776 6.11906 11.776 3.99106C11.776 1.86306 10.064 0.151062 7.936 0.151062ZM7.936 9.11106C3.84 9.11106 0.464 12.1831 0 16.1511H1.936C2.4 13.2551 4.912 11.0311 7.936 11.0311C10.96 11.0311 13.472 13.2551 13.936 16.1511H15.872C15.408 12.1831 12.032 9.11106 7.936 9.11106Z" fill="st0"/>
</svg>
